<svg width="29" height="41" viewBox="0 0 29 41" fill="none" xmlns="http://www.w3.org/2000/svg">
<path d="M7.2104 1.91257C11.6711 -0.679315 17.1541 -0.634013 21.573 2.03124C25.9485 4.75078 28.6078 9.60436 28.5832 14.8254C28.4812 20.0123 25.6296 24.8879 22.0653 28.657C20.008 30.8422 17.7066 32.7745 15.2081 34.4144C14.9507 34.5632 14.6689 34.6628 14.3764 34.7083C14.0948 34.6964 13.8207 34.6132 13.5786 34.4663C9.76412 32.0022 6.41764 28.857 3.70018 25.1818C1.42628 22.114 0.134412 18.4077 0 14.5661L0.0101802 14.0072C0.195841 8.99282 2.90896 4.4119 7.2104 1.91257ZM16.144 10.2793C14.3306 9.50852 12.2399 9.9273 10.848 11.3401C9.45616 12.753 9.03773 14.8811 9.78808 16.731C10.5384 18.5809 12.3096 19.7875 14.2745 19.7875C15.5618 19.7968 16.7992 19.2811 17.7111 18.3556C18.6229 17.43 19.1334 16.1713 19.1289 14.86C19.1357 12.8585 17.9574 11.0501 16.144 10.2793Z" fill="#A347FF"/>
<path opacity="0.4" d="M14.2918 40.8333C19.9297 40.8333 24.5002 39.9193 24.5002 38.7917C24.5002 37.6641 19.9297 36.75 14.2918 36.75C8.65392 36.75 4.0835 37.6641 4.0835 38.7917C4.0835 39.9193 8.65392 40.8333 14.2918 40.8333Z" fill="#A347FF"/>
</svg>
